# xmcd
#
# Track frame offsets: 
#        150
#        10964
#        37647
#        54119
#        68127
#        83532
#        94966
#        112426
#        133037
#        144952
#        155890
#        175520
#        194793
#        211364
#        232257
#        246845
#        263267
#        284617
#        297622
#        314875
#        327941
#
# Disc length: 4562 seconds
#
# Revision: 0
# Processed by: cddbd v1.5.2PL0 Copyright (c) Steve Scherf et al.
# Submitted via: ExactAudioCopy v0.95b3
#
DISCID=4111d015
DTITLE=Весёлые ребята - The very best
DYEAR=1900
DGENRE=Pop
TTITLE0=А мне то зачем
TTITLE1=Автомобили
TTITLE2=Алёшкина любовь
TTITLE3=Беладонна
TTITLE4=Бродячие артисты
TTITLE5=В последний раз
TTITLE6=Вечная весна
TTITLE7=Если любиш ты
TTITLE8=Как прекрасен этот мир
TTITLE9=Когда молчим вдвоём
TTITLE10=Легко влюбиться
TTITLE11=Люди встречаются...
TTITLE12=На Канарских островах
TTITLE13=Не волнуйтесь тётя
TTITLE14=Ни минуты покоя
TTITLE15=Никогда не поверю
TTITLE16=Отчего
TTITLE17=Розита
TTITLE18=Розовые Розы
TTITLE19=Уходи лето
TTITLE20=Что ты хочешь мне сказать
EXTD=
EXTT0=
EXTT1=
EXTT2=
EXTT3=
EXTT4=
EXTT5=
EXTT6=
EXTT7=
EXTT8=
EXTT9=
EXTT10=
EXTT11=
EXTT12=
EXTT13=
EXTT14=
EXTT15=
EXTT16=
EXTT17=
EXTT18=
EXTT19=
EXTT20=
PLAYORDER=
